<svg width="30" height="30" viewBox="0 0 30 30" fill="none" xmlns="http://www.w3.org/2000/svg">
<path d="M12.5 2.5C13.8261 2.5 15.0979 3.02678 16.0355 3.96447C16.9732 4.90215 17.5 6.17392 17.5 7.5V10H19.6875C20.4334 10 21.1488 10.2963 21.6762 10.8238C22.2037 11.3512 22.5 12.0666 22.5 12.8125V13.75C22.1012 13.75 21.7038 13.8875 21.38 14.1613L21.2463 14.2863C21.0413 14.4987 20.8337 14.69 20.6262 14.8575L20.625 12.8125C20.625 12.5639 20.5262 12.3254 20.3504 12.1496C20.1746 11.9738 19.9361 11.875 19.6875 11.875H5.3125C5.06386 11.875 4.8254 11.9738 4.64959 12.1496C4.47377 12.3254 4.375 12.5639 4.375 12.8125V24.6875C4.375 25.205 4.795 25.625 5.3125 25.625H17.6725C18.1966 26.3604 18.8486 26.9955 19.5975 27.5H5.3125C4.56658 27.5 3.85121 27.2037 3.32376 26.6762C2.79632 26.1488 2.5 25.4334 2.5 24.6875V12.8125C2.5 12.0666 2.79632 11.3512 3.32376 10.8238C3.85121 10.2963 4.56658 10 5.3125 10H7.5V7.5C7.5 6.17392 8.02678 4.90215 8.96447 3.96447C9.90215 3.02678 11.1739 2.5 12.5 2.5ZM22.855 15.1525C24.095 16.4475 25.4688 17.0837 27 17.0837C27.2413 17.0837 27.4438 17.2625 27.49 17.4987L27.5 17.6038V20.73C27.5 24.0825 25.8588 26.3625 22.6588 27.4738C22.5563 27.5094 22.4449 27.5094 22.3425 27.4738C19.2475 26.3988 17.6112 24.2338 17.505 21.0613L17.5 20.7312V17.6062C17.5 17.3188 17.725 17.085 18 17.085C19.5287 17.085 20.9038 16.4475 22.1475 15.1538C22.193 15.1056 22.2478 15.0672 22.3086 15.0409C22.3694 15.0147 22.435 15.0011 22.5012 15.0011C22.5675 15.0011 22.6331 15.0147 22.6939 15.0409C22.7547 15.0672 22.8095 15.1056 22.855 15.1538V15.1525ZM12.5 16.875C12.9973 16.875 13.4742 17.0725 13.8258 17.4242C14.1775 17.7758 14.375 18.2527 14.375 18.75C14.375 19.2473 14.1775 19.7242 13.8258 20.0758C13.4742 20.4275 12.9973 20.625 12.5 20.625C12.0027 20.625 11.5258 20.4275 11.1742 20.0758C10.8225 19.7242 10.625 19.2473 10.625 18.75C10.625 18.2527 10.8225 17.7758 11.1742 17.4242C11.5258 17.0725 12.0027 16.875 12.5 16.875ZM12.5 4.375C11.6712 4.375 10.8763 4.70424 10.2903 5.29029C9.70424 5.87634 9.375 6.6712 9.375 7.5V10H15.625V7.5C15.625 6.6712 15.2958 5.87634 14.7097 5.29029C14.1237 4.70424 13.3288 4.375 12.5 4.375Z" fill="white"/>
</svg>
