<svg width="107" height="94" viewBox="0 0 107 94" fill="none" xmlns="http://www.w3.org/2000/svg">
<path d="M46.656 67.656C47.088 68.808 43.056 69.24 43.056 69.24C43.056 69.24 50.976 69.24 51.552 69.816C51.984 70.392 50.832 71.688 50.832 71.688H91.872C91.872 71.688 89.28 69.816 90.576 69.384C91.872 68.952 95.04 69.384 95.04 69.384L91.296 65.928L106.704 63.048C106.704 63.048 96.48 62.04 95.904 61.032C95.472 59.88 99.504 59.448 99.504 59.448C99.504 59.448 91.728 59.448 91.152 58.872C90.576 58.296 91.872 57 91.872 57H50.688C50.688 57 53.28 58.872 51.984 59.304C50.688 59.736 47.664 59.304 47.664 59.304L51.408 62.76L36 65.64C36 65.64 46.224 66.648 46.656 67.656Z" fill="white"/>
<path d="M10.656 67.656C11.088 68.808 7.056 69.24 7.056 69.24C7.056 69.24 14.976 69.24 15.552 69.816C15.984 70.392 14.832 71.688 14.832 71.688H55.872C55.872 71.688 53.28 69.816 54.576 69.384C55.872 68.952 59.04 69.384 59.04 69.384L55.296 65.928L70.704 63.048C70.704 63.048 60.48 62.04 59.904 61.032C59.472 59.88 63.504 59.448 63.504 59.448C63.504 59.448 55.728 59.448 55.152 58.872C54.576 58.296 55.872 57 55.872 57H14.688C14.688 57 17.28 58.872 15.984 59.304C14.688 59.736 11.664 59.304 11.664 59.304L15.408 62.76L0 65.64C0 65.64 10.224 66.648 10.656 67.656Z" fill="white"/>
<path d="M66.2 89.336C67.64 89.48 65.192 92.648 65.192 92.648L76.568 84.44L78.152 85.736L106.088 62.696L75.272 47L77.288 49.88L68.792 47.144C68.792 47.144 73.832 50.456 74.84 51.608C75.704 52.76 70.952 50.744 70.952 50.744C70.952 50.744 74.408 53.048 74.552 53.912C74.696 54.92 72.248 55.208 72.248 55.208C72.248 55.208 80.6 59.816 80.456 61.4C80.312 62.84 62.024 77.672 62.024 77.672C62.024 77.672 65.768 79.4 65.768 80.12C65.912 80.84 62.168 83.432 62.168 83.432L65.48 84.296L59 93.8C59 93.8 64.76 89.192 66.2 89.336Z" fill="white"/>
<path d="M46.656 67.656C47.088 68.808 43.056 69.24 43.056 69.24C43.056 69.24 50.976 69.24 51.552 69.816C51.984 70.392 50.832 71.688 50.832 71.688H91.872C91.872 71.688 89.28 69.816 90.576 69.384C91.872 68.952 95.04 69.384 95.04 69.384L91.296 65.928L106.704 63.048C106.704 63.048 96.48 62.04 95.904 61.032C95.472 59.88 99.504 59.448 99.504 59.448C99.504 59.448 91.728 59.448 91.152 58.872C90.576 58.296 91.872 57 91.872 57H50.688C50.688 57 53.28 58.872 51.984 59.304C50.688 59.736 47.664 59.304 47.664 59.304L51.408 62.76L36 65.64C36 65.64 46.224 66.648 46.656 67.656Z" fill="white"/>
<path d="M10.656 67.656C11.088 68.808 7.056 69.24 7.056 69.24C7.056 69.24 14.976 69.24 15.552 69.816C15.984 70.392 14.832 71.688 14.832 71.688H55.872C55.872 71.688 53.28 69.816 54.576 69.384C55.872 68.952 59.04 69.384 59.04 69.384L55.296 65.928L70.704 63.048C70.704 63.048 60.48 62.04 59.904 61.032C59.472 59.88 63.504 59.448 63.504 59.448C63.504 59.448 55.728 59.448 55.152 58.872C54.576 58.296 55.872 57 55.872 57H14.688C14.688 57 17.28 58.872 15.984 59.304C14.688 59.736 11.664 59.304 11.664 59.304L15.408 62.76L0 65.64C0 65.64 10.224 66.648 10.656 67.656Z" fill="white"/>
<path d="M66.2 89.336C67.64 89.48 65.192 92.648 65.192 92.648L76.568 84.44L78.152 85.736L106.088 62.696L75.272 47L77.288 49.88L68.792 47.144C68.792 47.144 73.832 50.456 74.84 51.608C75.704 52.76 70.952 50.744 70.952 50.744C70.952 50.744 74.408 53.048 74.552 53.912C74.696 54.92 72.248 55.208 72.248 55.208C72.248 55.208 80.6 59.816 80.456 61.4C80.312 62.84 62.024 77.672 62.024 77.672C62.024 77.672 65.768 79.4 65.768 80.12C65.912 80.84 62.168 83.432 62.168 83.432L65.48 84.296L59 93.8C59 93.8 64.76 89.192 66.2 89.336Z" fill="white"/>
<path d="M60.0481 26.144C59.6161 24.992 63.6481 24.56 63.6481 24.56C63.6481 24.56 55.7281 24.56 55.1521 23.984C54.7201 23.408 55.8721 22.112 55.8721 22.112L14.8321 22.112C14.8321 22.112 17.4241 23.984 16.1281 24.416C14.8321 24.848 11.6641 24.416 11.6641 24.416L15.4081 27.872L9.97109e-05 30.752C9.97109e-05 30.752 10.2241 31.76 10.8001 32.768C11.2321 33.92 7.2001 34.352 7.2001 34.352C7.2001 34.352 14.9761 34.352 15.5521 34.928C16.1281 35.504 14.8321 36.8 14.8321 36.8L56.0161 36.8C56.0161 36.8 53.4241 34.928 54.7201 34.496C56.0161 34.064 59.0401 34.496 59.0401 34.496L55.2961 31.04L70.7041 28.16C70.7041 28.16 60.4801 27.152 60.0481 26.144Z" fill="white"/>
<path d="M96.0481 26.144C95.6161 24.992 99.6481 24.56 99.6481 24.56C99.6481 24.56 91.7281 24.56 91.1521 23.984C90.7201 23.408 91.8721 22.112 91.8721 22.112L50.8321 22.112C50.8321 22.112 53.4241 23.984 52.1281 24.416C50.8321 24.848 47.6641 24.416 47.6641 24.416L51.4081 27.872L36.0001 30.752C36.0001 30.752 46.2241 31.76 46.8001 32.768C47.2321 33.92 43.2001 34.352 43.2001 34.352C43.2001 34.352 50.9761 34.352 51.5521 34.928C52.1281 35.504 50.8321 36.8 50.8321 36.8L92.0161 36.8C92.0161 36.8 89.4241 34.928 90.7201 34.496C92.0161 34.064 95.0401 34.496 95.0401 34.496L91.2961 31.04L106.704 28.16C106.704 28.16 96.4801 27.152 96.0481 26.144Z" fill="white"/>
<path d="M40.5041 4.46405C39.0641 4.32005 41.5121 1.15205 41.5121 1.15205L30.1361 9.36004L28.5521 8.06405L0.616102 31.104L31.4321 46.8L29.4161 43.92L37.9121 46.656C37.9121 46.656 32.8721 43.344 31.8641 42.192C31.0001 41.04 35.7521 43.056 35.7521 43.056C35.7521 43.056 32.2961 40.752 32.1521 39.888C32.0081 38.88 34.4561 38.592 34.4561 38.592C34.4561 38.592 26.1041 33.984 26.2481 32.4C26.3921 30.96 44.6801 16.128 44.6801 16.128C44.6801 16.128 40.9361 14.4 40.9361 13.68C40.7921 12.96 44.5361 10.368 44.5361 10.368L41.2241 9.50405L47.7041 4.57764e-05C47.7041 4.57764e-05 41.9441 4.60805 40.5041 4.46405Z" fill="white"/>
</svg>
