<svg width="451" height="80" viewBox="0 0 451 80" fill="none" xmlns="http://www.w3.org/2000/svg">
<g opacity="0.3" filter="url(#filter0_f)">
<path d="M80.361 66.0124C80.1721 66.4648 67.0603 61.4203 51.076 54.7455C35.0917 48.0708 22.2863 42.2927 22.4753 41.8402C22.6642 41.3878 35.7759 46.4323 51.7602 53.1071C67.7445 59.7818 80.5499 65.5599 80.361 66.0124Z" fill="url(#paint0_linear)"/>
</g>
<path opacity="0.5" d="M59.7334 61.1512C59.4027 61.943 55.1228 60.9095 50.1737 58.8429C45.2247 56.7763 41.4808 54.4591 41.8115 53.6673C42.1421 52.8755 46.4221 53.909 51.3711 55.9756C56.3201 58.0422 60.064 60.3594 59.7334 61.1512Z" fill="url(#paint1_radial)"/>
<path d="M54.6122 52.0085C54.6122 52.0085 61.2187 49.1681 64.5314 49.8765C66.693 50.3387 69.88 53.7953 69.88 53.7953L74.3897 49.4931C74.3897 49.4931 71.9399 45.724 71.7659 43.578C71.4814 40.0684 74.4454 33.3724 74.4454 33.3724L54.6123 52.0081L54.6122 52.0085Z" fill="url(#paint2_linear)"/>
<path d="M65.4571 49.8913L68.4811 47.9154L71.7453 44.5749C71.7453 44.5749 69.9749 44.5444 69.1982 44.9007C67.8701 45.5099 66.6923 46.5787 65.9484 47.8321C65.5883 48.4389 65.4571 49.8913 65.4571 49.8913L65.4571 49.8913Z" fill="url(#paint3_linear)"/>
<path d="M65.4448 49.9119L79.1369 64.7976C79.1369 64.7976 81.9076 63.1999 83.0993 62.1516C84.2485 61.1408 86.1133 58.6914 86.1133 58.6914L71.6899 44.506L65.4444 49.9117L65.4448 49.9119Z" fill="url(#paint4_linear)"/>
<path d="M53.696 6.70011C45.985 4.44428 37.1185 7.68833 32.6751 14.315C28.8406 19.425 27.9666 26.3868 30.0367 32.4021C31.8972 38.2079 35.8971 43.0997 40.3742 47.1469C44.2531 50.561 49.7847 53.1108 54.9435 51.2957C57.2017 50.487 58.5175 48.2723 60.3433 46.8274C64.8981 42.4974 69.4552 38.1698 74.0094 33.8392C75.7866 28.8271 73.4182 23.4989 70.5741 19.3571C67.057 14.4405 62.2902 10.3055 56.7647 7.78511C55.7697 7.35285 54.7415 6.98097 53.6967 6.7003L53.696 6.70011Z" fill="url(#paint5_linear)"/>
<g opacity="0.35">
<path d="M42.3527 19.6811C42.6519 19.139 41.466 15.7989 41.466 15.7989L41.0154 16.2861L40.0858 14.8363C40.0858 14.8363 40.0576 15.528 39.8748 15.5131C39.7234 15.4582 39.2362 15.0077 39.2362 15.0077C39.2362 15.0077 39.0601 16.2963 38.6711 16.3778C38.2504 16.4992 37.2728 16.5043 37.2728 16.5043C37.2728 16.5043 37.4411 19.818 37.9367 20.3401C38.4721 20.8937 41.982 20.2315 42.3527 19.6811Z" fill="#323232"/>
<path d="M46.7394 14.1385C47.0386 13.5964 45.8527 10.2562 45.8527 10.2562L45.4022 10.7435L44.4725 9.29373C44.4725 9.29373 44.4444 9.98541 44.2615 9.97047C44.1102 9.91562 43.6229 9.46509 43.6229 9.46509C43.6229 9.46509 43.4469 10.7537 43.0578 10.8352C42.6372 10.9566 41.6595 10.9617 41.6595 10.9617C41.6595 10.9617 41.8278 14.2754 42.3234 14.7975C42.8588 15.3511 46.3687 14.6889 46.7394 14.1385Z" fill="#323232"/>
<path d="M65.3394 31.1138C64.2532 27.0737 59.3759 21.5908 59.3759 21.5908L58.8652 19.6937L57.8077 19.6356L55.1153 15.4926L54.2108 15.8153L50.7237 11.6922L50.8137 13.7107L47.7591 11.7475L49.5652 15.1242L48.6358 15.2323L50.214 17.5848L49.7152 17.969C49.7152 17.969 58.2942 27.5499 59.8625 31.063C60.5544 32.6491 60.3068 33.946 59.6119 34.824C58.7591 35.9015 57.2827 36.2908 56.3416 35.6757C54.6505 34.532 48.3595 26.2426 48.3595 26.2426L47.3735 26.1763L45.2151 23.8189L45.7191 25.9703L41.2543 21.8524L43.4612 25.8708L42.259 25.5035L44.1083 28.0056L43.6744 28.6358C43.6744 28.6358 47.5706 33.4721 51.7778 38.4895C56.1048 43.6017 60.9231 42.3524 63.5763 39.0002C65.2503 36.885 66.0614 33.8921 65.3394 31.1138Z" fill="#323232"/>
</g>
<path d="M42.3918 60.8421C42.3918 60.8421 48.341 54.6967 52.3017 53.9559C54.8861 53.4725 59.9682 55.8056 59.9682 55.8056L62.9461 49.0168C62.9461 49.0168 58.5298 46.0027 57.3553 43.7271C55.4345 40.0054 55.6187 31.2976 55.6187 31.2976L42.3916 60.8417L42.3918 60.8421Z" fill="url(#paint6_linear)"/>
<path d="M53.3249 53.5478L55.7384 49.9931L57.7901 44.8306C57.7901 44.8306 55.8329 45.6086 55.1437 46.3557C53.9653 47.633 53.1625 49.3459 52.9205 51.0626C52.8033 51.8936 53.325 53.5478 53.325 53.5478H53.3249Z" fill="url(#paint7_linear)"/>
<path d="M53.3218 53.5758L75.1724 63.6385C75.1724 63.6385 77.4812 60.615 78.3087 58.9182C79.1067 57.2821 80.0308 53.739 80.0308 53.739L57.6986 44.7802L53.3213 53.5758H53.3218Z" fill="url(#paint8_linear)"/>
<path d="M20.6211 11.5326C11.1238 12.5908 2.87896 20.2152 1.03924 29.525C-0.827389 36.891 1.40403 44.9327 6.43313 50.5862C11.1362 56.1057 17.7685 59.6416 24.5374 62.0317C30.3594 64.0012 37.5994 64.2644 42.4297 59.9078C44.5376 57.9851 44.9667 54.9513 46.3085 52.5286C49.3231 45.6885 52.3414 38.85 55.3551 32.0096C55.0086 25.6939 49.967 20.9313 44.9471 17.6889C38.8333 13.9046 31.7062 11.5508 24.4864 11.317C23.1962 11.2986 21.8973 11.3617 20.6219 11.5325L20.6211 11.5326Z" fill="url(#paint9_radial)"/>
<path d="M45.7436 59.5061C45.7436 63.5156 42.4744 66.7659 38.4416 66.7659C34.4089 66.7659 31.1396 63.5156 31.1396 59.5061C31.1396 55.4966 34.4089 52.2462 38.4416 52.2462C42.4744 52.2462 45.7436 55.4966 45.7436 59.5061Z" fill="url(#paint10_radial)"/>
<path d="M44.8885 56.0941C45.1325 56.8187 45.2707 57.5925 45.2707 58.3987C45.2707 62.4082 41.997 65.6579 37.9644 65.6579C35.1658 65.6579 32.7375 64.092 31.5117 61.7939C32.4758 64.682 35.2123 66.7633 38.4408 66.7633C42.4736 66.7633 45.7471 63.5135 45.7471 59.5041C45.7471 58.271 45.434 57.1112 44.8884 56.0941H44.8885Z" fill="url(#paint11_linear)"/>
<path d="M32.0373 62.87C31.7933 62.1454 31.6551 61.3717 31.6551 60.5654C31.6551 56.5559 34.9288 53.3063 38.9614 53.3063C41.76 53.3063 44.1882 54.8721 45.4141 57.1703C44.45 54.2821 41.7135 52.2008 38.485 52.2008C34.4522 52.2008 31.1787 55.4506 31.1787 59.46C31.1787 60.6931 31.4918 61.8529 32.0374 62.87H32.0373Z" fill="url(#paint12_linear)"/>
<g opacity="0.35">
<path d="M13.5278 33.02C13.583 32.2807 10.6257 29.2373 10.6257 29.2373L10.3785 29.9923L8.64338 28.8784C8.64338 28.8784 8.95785 29.6452 8.75134 29.7202C8.5593 29.736 7.80424 29.4888 7.80424 29.4888C7.80424 29.4888 8.25558 30.9791 7.87284 31.2619C7.47563 31.604 6.41417 32.0974 6.41417 32.0974C6.41417 32.0974 8.25083 35.6197 9.05062 35.9406C9.9096 36.2759 13.399 33.804 13.5278 33.02Z" fill="#323232"/>
<path d="M15.5366 24.7987C15.5918 24.0594 12.6345 21.016 12.6345 21.016L12.3873 21.771L10.6522 20.6571C10.6522 20.6571 10.9666 21.4239 10.7601 21.4989C10.5681 21.5147 9.81303 21.2675 9.81303 21.2675C9.81303 21.2675 10.2644 22.7578 9.88163 23.0406C9.48442 23.3827 8.42296 23.8761 8.42296 23.8761C8.42296 23.8761 10.2596 27.3984 11.0594 27.7193C11.9184 28.0546 15.4078 25.5826 15.5366 24.7987Z" fill="#323232"/>
<path d="M44.2497 33.9927C41.0516 30.1377 33.0076 26.6041 33.0076 26.6041L31.5053 24.7943L30.3254 25.2588L25.328 22.0932L24.5046 22.8957L18.6522 20.1485L19.7574 22.3003L15.4534 21.6879L19.1039 24.4616L18.1463 25.0431L21.0377 26.8159L20.6866 27.4828C20.6866 27.4828 34.8039 33.6294 38.2637 36.6701C39.8081 38.0511 40.1858 39.5861 39.8676 40.8884C39.4771 42.4866 38.0645 43.6469 36.7333 43.4471C34.3222 43.0462 23.3395 37.1637 23.3395 37.1637L22.2333 37.5835L18.7079 36.0948L20.33 38.1848L13.4161 35.931L17.823 39.2032L16.3314 39.4033L19.5924 41.2037L19.4346 42.1061C19.4346 42.1061 26.0882 45.4253 33.1706 48.7867C40.4305 52.1914 45.051 48.4276 46.2659 43.4553C47.0324 40.318 46.4217 36.6561 44.2497 33.9927Z" fill="#323232"/>
</g>
<path d="M106.43 14.3344C107.592 14.1406 111.177 8.42512 111.177 8.42512L109.917 8.32825L110.983 5.22832C110.983 5.22832 109.917 6.0033 109.723 5.71268C109.627 5.42206 109.723 4.16272 109.723 4.16272C109.723 4.16272 107.592 5.42206 107.011 4.9377C106.333 4.45334 105.17 3.00024 105.17 3.00024C105.17 3.00024 100.424 7.16577 100.23 8.52199C100.036 9.97509 105.17 14.4312 106.43 14.3344Z" fill="url(#paint13_linear)"/>
<path d="M119.885 14.3344C121.047 14.1406 124.632 8.42512 124.632 8.42512L123.372 8.32825L124.438 5.22832C124.438 5.22832 123.372 6.0033 123.179 5.71268C123.082 5.42206 123.179 4.16272 123.179 4.16272C123.179 4.16272 121.047 5.42206 120.466 4.9377C119.788 4.45334 118.626 3.00024 118.626 3.00024C118.626 3.00024 113.879 7.16577 113.685 8.52199C113.491 9.97509 118.626 14.4312 119.885 14.3344Z" fill="url(#paint14_linear)"/>
<path d="M116.52 62.1462C121.267 55.7526 123.689 41.9967 123.689 41.9967L125.917 38.9936L124.754 37.3468L127.757 28.4345L126.207 27.4658L128.242 17.391L125.336 19.9097L124.657 13.0317L121.751 19.716L120.492 18.4566L118.845 23.5909L117.683 23.3003C117.683 23.3003 113.517 47.4216 110.127 53.9121C108.577 56.8182 106.349 57.9807 104.217 57.9807C101.602 57.9807 99.2768 56.237 99.0831 54.1058C98.7924 50.2309 103.733 31.0501 103.733 31.0501L102.667 29.5001L103.636 23.494L101.021 26.7877L101.892 15.2598L98.5018 23.3003L97.63 21.0722L96.08 26.7877L94.6269 26.8845C94.6269 26.8845 92.0114 38.4124 89.4927 50.6184C86.974 63.115 94.53 68.8305 102.667 68.8305C107.802 68.8305 113.226 66.5055 116.52 62.1462Z" fill="url(#paint15_linear)"/>
<path d="M121.31 68.5398C121.31 68.5398 157.25 65.343 164.128 59.4338C171.103 53.5246 169.262 46.2591 162.094 42.8686C161.028 42.3842 159.575 41.8998 158.025 41.5123C165.097 32.8907 170.909 21.6534 165.775 16.616C162.965 13.9036 159.769 13.0317 156.475 13.0317C153.181 13.0317 149.791 13.9036 146.788 14.9692C140.878 16.9066 126.929 23.2034 126.929 23.2034L129.447 23.5909L123.054 27.1752L129.641 25.9158L128.866 27.3689L137.1 25.044L133.807 28.047C133.807 28.047 135.647 27.3689 138.263 26.3033L134.969 39.3811C130.222 44.4185 123.926 48.4872 123.926 48.4872L125.863 47.9059L125.185 48.8747L128.866 46.9372L128.382 48.5841C129.835 48.0997 131.385 47.7122 132.838 47.4216L129.641 60.1119C126.638 60.3057 124.604 60.3057 124.604 60.3057L126.929 62.5337L123.151 64.7618L127.316 64.9556L121.31 68.5398ZM143.978 38.7999L148.047 23.0096C150.178 22.3315 152.406 21.6534 154.247 21.2659C155.409 20.9753 156.378 20.8784 157.25 20.8784C165.097 20.8784 156.572 32.4063 150.759 39.478L148.822 37.0562L147.175 37.8312L146.981 33.7625L143.978 38.7999ZM138.65 59.4338L141.944 46.6466C149.597 46.5497 156.184 48.0997 157.831 49.2622C160.35 51.1027 158.315 55.0745 148.919 57.5932C145.819 58.4651 142.235 59.0463 138.65 59.4338Z" fill="url(#paint16_linear)"/>
<path d="M155.598 65.0524L160.926 65.2462L157.729 66.893L167.513 66.2149L166.932 68.5398L200.062 62.0494L193.088 61.7588L199.675 59.2401L196.575 58.6588L200.062 56.5276L191.441 57.3995L191.634 54.8808L175.941 57.5932L180.882 42.3842L190.569 41.8998L188.728 40.3499L193.088 38.703L185.919 37.0562L186.016 35.8937L183.013 36.0875L186.791 24.7533L198.319 21.6534L197.35 26.7877L199.287 25.2377L198.319 31.7282L202 26.4002L202.29 29.9845C202.29 29.9845 205.197 20.2972 206.262 15.6473C206.747 13.7098 204.906 13.0317 201.709 13.0317C191.731 13.0317 168.869 20.4909 166.641 21.0722L166.932 22.719L161.507 25.2377L166.835 25.5283L165.285 27.4658L170.129 26.9814L169.063 29.3064L176.813 27.272L173.616 36.7656L169.547 37.0562L171.001 38.1218L169.838 39.7686L170.71 40.6405L167.61 43.1592L171.582 42.9654L166.254 59.2401L160.829 60.2088L161.119 62.0494L155.598 65.0524Z" fill="url(#paint17_linear)"/>
<path d="M197.746 26.6908L202.009 26.5939L203.075 28.6283L206.465 27.9501V30.4688C206.465 30.4688 210.34 29.0157 215.184 27.272L213.44 28.822L205.206 53.8152L205.884 55.0745L204.431 61.2744L206.756 60.4025L205.496 68.6367L208.499 62.6306L210.534 62.1462L212.374 55.7526L214.99 54.3964L217.799 44.806C218.284 44.7091 218.865 44.4185 219.64 44.1279L232.33 58.2713L234.364 56.7214L238.627 61.9525L238.53 59.2401L248.798 68.6367L244.439 60.4994L246.667 59.5307L243.18 55.8495L243.664 54.3964L229.521 39.7686C236.689 35.9906 244.924 29.7907 244.73 21.0722C244.536 14.5817 239.402 13.1286 234.461 13.1286C231.458 13.1286 228.649 13.7098 227.002 14.0005C222.74 14.9692 205.303 20.2972 205.303 20.2972L206.174 22.3315L197.746 26.6908ZM221.771 30.9532L220.802 28.7251L223.127 24.3659C228.843 22.3315 233.977 20.6847 234.558 20.9753C235.818 21.4597 236.883 25.6252 231.458 29.2095C227.971 31.5344 223.515 33.6656 220.608 35.0219L221.771 30.9532Z" fill="url(#paint18_linear)"/>
<path d="M264.244 44.9998C264.534 45.7747 261.822 46.0654 261.822 46.0654C261.822 46.0654 267.15 46.0654 267.537 46.4528C267.828 46.8403 267.053 47.7122 267.053 47.7122H294.662C294.662 47.7122 292.918 46.4528 293.79 46.1622C294.662 45.8716 296.793 46.1622 296.793 46.1622L294.274 43.8373L304.64 41.8998C304.64 41.8998 297.762 41.2217 297.374 40.5436C297.083 39.7686 299.796 39.478 299.796 39.478C299.796 39.478 294.565 39.478 294.177 39.0905C293.79 38.703 294.662 37.8312 294.662 37.8312H266.956C266.956 37.8312 268.7 39.0905 267.828 39.3811C266.956 39.6718 264.922 39.3811 264.922 39.3811L267.44 41.7061L257.075 43.6435C257.075 43.6435 263.953 44.3216 264.244 44.9998Z" fill="url(#paint19_linear)"/>
<path d="M310.144 26.5939L311.21 28.7251L314.6 27.9501V30.4688C314.6 30.4688 317.797 29.3064 321.962 27.7564L313.341 53.7183L309.95 63.5025L312.178 63.5993L311.5 68.7336L316.538 61.2744L316.731 64.4712L320.316 59.9182L322.156 54.3964L323.997 51.7809L326.031 44.806C327.29 44.4185 329.518 43.5467 333.587 41.803C341.143 38.4124 353.155 31.5344 352.865 21.1691C352.671 14.6786 347.537 13.1286 342.596 13.1286C339.593 13.1286 336.784 13.7098 335.137 14.0973C330.875 14.9692 313.341 20.2972 313.341 20.2972L314.309 22.4284L305.882 26.6908L310.144 26.5939ZM330.875 31.6313L332.425 27.7564C332.425 27.7564 331.843 27.272 331.456 26.9814L332.328 24.0752C337.559 22.2346 342.112 20.7816 342.693 20.9753C343.953 21.5565 345.018 25.7221 339.496 29.3064C337.268 30.7595 334.459 32.3094 332.037 33.4719L333.006 31.5344L330.875 31.6313Z" fill="url(#paint20_linear)"/>
<path d="M348.891 68.7336H355.188C355.188 68.7336 357.9 68.0555 358.675 67.4742C371.365 59.1432 377.856 51.2965 380.084 27.0783L379.018 27.5627L378.921 21.2659L376.209 26.9814L374.271 25.9158L372.528 31.0501H370.493C370.493 31.0501 370.881 35.3125 369.912 39.3811C368.943 43.3529 364.972 45.7747 364.972 45.7747L364.681 48.9715C362.453 54.3964 356.931 58.2713 356.931 58.2713L357.028 56.7214C357.028 56.7214 356.059 57.3995 353.734 57.1089C351.506 56.8182 351.894 50.5215 352.669 47.5185C353.347 44.6123 355.478 42.5779 355.478 42.5779L355.091 37.7343L356.737 37.928L359.741 32.6969L361.29 26.0127L362.356 28.2408C362.356 28.2408 364.39 24.4627 367.49 24.4627C370.59 24.4627 370.59 28.9189 370.59 28.9189C372.818 27.6595 373.206 23.3003 373.206 23.3003L375.24 24.3659L377.275 21.6534C377.275 21.6534 373.4 13.2255 365.359 13.2255C357.319 13.2255 352.475 26.1096 350.538 28.047C348.503 30.0813 347.728 30.0813 345.791 37.4437C343.95 44.806 344.919 48.7778 344.919 48.7778L342.788 53.9121C343.175 60.9838 348.891 68.7336 348.891 68.7336Z" fill="url(#paint21_linear)"/>
<path d="M373.409 55.7526L374.281 58.4651L372.247 68.7336L374.766 64.9556L376.8 64.1806L379.125 59.9182L379.9 63.6962L387.359 41.028L397.143 61.1775L398.693 60.79V61.0806L399.468 64.7618L402.374 67.4742L403.149 64.9556L404.409 68.7336L419.036 24.1721L418.455 22.4284L419.908 17.1004L418.358 18.4566L418.455 13.2255L414.968 19.6191L414.096 16.8098L411.965 22.2347L410.027 24.269L401.987 48.4872L392.009 26.8845L389.684 20.6847L388.037 22.2347L385.906 17.9723L373.409 55.7526Z" fill="url(#paint22_linear)"/>
<path d="M420.194 68.5398C424.747 68.5398 431.916 65.1493 436.857 62.5337L436.953 63.9868L438.6 63.5025L438.794 68.5398L441.022 64.2774L441.797 66.893L443.25 61.8556L444.122 62.0494L445.188 48.9715L449.256 45.6779H445.575L451 41.4155L432.594 46.1622L434.241 47.131L426.782 50.5215L431.819 51.5871L428.913 54.2995L435.016 52.3621C432.691 54.0089 427.363 57.3026 422.81 57.012C417.385 56.7214 422.616 42.1904 427.072 33.7625V37.0562L433.66 24.7533C436.372 22.4284 438.794 21.8472 439.86 22.3315C441.506 23.0096 438.6 28.3376 438.6 28.3376L440.635 27.272L439.278 32.6969L441.603 30.6626L439.569 38.4124L444.025 33.4719L444.897 34.15C444.897 34.15 448.384 27.6595 449.256 22.9128C450.128 18.0691 447.609 13.0317 440.441 13.0317C434.725 13.0317 426.879 16.7129 420.194 28.5314L418.451 26.5939L419.323 30.0813C417.966 32.6 416.707 35.5062 415.448 38.7999C408.085 58.8526 412.638 68.5398 420.194 68.5398Z" fill="url(#paint23_linear)"/>
<defs>
<filter id="filter0_f" x="9.25385" y="28.142" width="84.3278" height="51.5685" filterUnits="userSpaceOnUse" color-interpolation-filters="sRGB">
<feFlood flood-opacity="0" result="BackgroundImageFix"/>
<feBlend mode="normal" in="SourceGraphic" in2="BackgroundImageFix" result="shape"/>
<feGaussianBlur stdDeviation="6.43948" result="effect1_foregroundBlur"/>
</filter>
<linearGradient id="paint0_linear" x1="22.8174" y1="41.021" x2="80.7031" y2="65.1931" gradientUnits="userSpaceOnUse">
<stop stop-opacity="0"/>
<stop offset="0.425"/>
<stop offset="1" stop-opacity="0"/>
</linearGradient>
<radialGradient id="paint1_radial" cx="0" cy="0" r="1" gradientUnits="userSpaceOnUse" gradientTransform="translate(25.8904 64.583) rotate(22.6646) scale(10.1552 1.62475)">
<stop/>
<stop offset="1" stop-opacity="0"/>
</radialGradient>
<linearGradient id="paint2_linear" x1="33.6155" y1="111.86" x2="32.1143" y2="111.455" gradientUnits="userSpaceOnUse">
<stop stop-color="#D5D5D5"/>
<stop offset="1" stop-color="#878787"/>
</linearGradient>
<linearGradient id="paint3_linear" x1="32.7938" y1="117.781" x2="30.3812" y2="117.131" gradientUnits="userSpaceOnUse">
<stop stop-color="#C0C0C0"/>
<stop offset="1" stop-color="#FDFDFD"/>
</linearGradient>
<linearGradient id="paint4_linear" x1="86.5963" y1="40.5596" x2="71.0641" y2="57.127" gradientUnits="userSpaceOnUse">
<stop stop-color="#787878"/>
<stop offset="0.5" stop-color="#848484"/>
<stop offset="1" stop-color="#D3D3D3"/>
</linearGradient>
<linearGradient id="paint5_linear" x1="65" y1="17" x2="50.0873" y2="32.5835" gradientUnits="userSpaceOnUse">
<stop stop-color="#FF1313"/>
<stop offset="1" stop-color="#880000"/>
</linearGradient>
<linearGradient id="paint6_linear" x1="46.7781" y1="136.157" x2="44.9449" y2="136.401" gradientUnits="userSpaceOnUse">
<stop stop-color="#D5D5D5"/>
<stop offset="1" stop-color="#878787"/>
</linearGradient>
<linearGradient id="paint7_linear" x1="48.5905" y1="143.033" x2="45.6443" y2="143.424" gradientUnits="userSpaceOnUse">
<stop stop-color="#C0C0C0"/>
<stop offset="1" stop-color="#FDFDFD"/>
</linearGradient>
<linearGradient id="paint8_linear" x1="72.2507" y1="33.6166" x2="62.7963" y2="58.9195" gradientUnits="userSpaceOnUse">
<stop stop-color="#787878"/>
<stop offset="0.5" stop-color="#848484"/>
<stop offset="1" stop-color="#D3D3D3"/>
</linearGradient>
<radialGradient id="paint9_radial" cx="0" cy="0" r="1" gradientUnits="userSpaceOnUse" gradientTransform="translate(11.4579 56.6542) rotate(-37.527) scale(48.7999 47.2465)">
<stop stop-color="#FF1313"/>
<stop offset="1" stop-color="#C80000"/>
</radialGradient>
<radialGradient id="paint10_radial" cx="0" cy="0" r="1" gradientUnits="userSpaceOnUse" gradientTransform="translate(96.1287 -35.3883) scale(10.5507 10.4899)">
<stop stop-color="#F9F9F9"/>
<stop offset="1" stop-color="#CCCCCC"/>
</radialGradient>
<linearGradient id="paint11_linear" x1="51.2989" y1="56.0941" x2="40.5654" y2="56.0941" gradientUnits="userSpaceOnUse">
<stop stop-color="#B3B3B3"/>
<stop offset="1" stop-color="#B3B3B3" stop-opacity="0"/>
</linearGradient>
<linearGradient id="paint12_linear" x1="32.2464" y1="52.2008" x2="37.912" y2="52.2008" gradientUnits="userSpaceOnUse">
<stop stop-color="white"/>
<stop offset="1" stop-color="white" stop-opacity="0"/>
</linearGradient>
<linearGradient id="paint13_linear" x1="105.701" y1="3.00024" x2="105.701" y2="14.3359" gradientUnits="userSpaceOnUse">
<stop stop-color="white"/>
<stop offset="1" stop-color="#DDDDDD"/>
</linearGradient>
<linearGradient id="paint14_linear" x1="119.156" y1="3.00024" x2="119.156" y2="14.3359" gradientUnits="userSpaceOnUse">
<stop stop-color="white"/>
<stop offset="1" stop-color="#DDDDDD"/>
</linearGradient>
<linearGradient id="paint15_linear" x1="270" y1="13.0317" x2="270" y2="68.8305" gradientUnits="userSpaceOnUse">
<stop stop-color="white"/>
<stop offset="1" stop-color="#DDDDDD"/>
</linearGradient>
<linearGradient id="paint16_linear" x1="270" y1="13.0317" x2="270" y2="68.8305" gradientUnits="userSpaceOnUse">
<stop stop-color="white"/>
<stop offset="1" stop-color="#DDDDDD"/>
</linearGradient>
<linearGradient id="paint17_linear" x1="270" y1="13.0317" x2="270" y2="68.8305" gradientUnits="userSpaceOnUse">
<stop stop-color="white"/>
<stop offset="1" stop-color="#DDDDDD"/>
</linearGradient>
<linearGradient id="paint18_linear" x1="270" y1="13.0317" x2="270" y2="68.8305" gradientUnits="userSpaceOnUse">
<stop stop-color="white"/>
<stop offset="1" stop-color="#DDDDDD"/>
</linearGradient>
<linearGradient id="paint19_linear" x1="270" y1="13.0317" x2="270" y2="68.8305" gradientUnits="userSpaceOnUse">
<stop stop-color="white"/>
<stop offset="1" stop-color="#DDDDDD"/>
</linearGradient>
<linearGradient id="paint20_linear" x1="270" y1="13.0317" x2="270" y2="68.8305" gradientUnits="userSpaceOnUse">
<stop stop-color="white"/>
<stop offset="1" stop-color="#DDDDDD"/>
</linearGradient>
<linearGradient id="paint21_linear" x1="270" y1="13.0317" x2="270" y2="68.8305" gradientUnits="userSpaceOnUse">
<stop stop-color="white"/>
<stop offset="1" stop-color="#DDDDDD"/>
</linearGradient>
<linearGradient id="paint22_linear" x1="270" y1="13.0317" x2="270" y2="68.8305" gradientUnits="userSpaceOnUse">
<stop stop-color="white"/>
<stop offset="1" stop-color="#DDDDDD"/>
</linearGradient>
<linearGradient id="paint23_linear" x1="270" y1="13.0317" x2="270" y2="68.8305" gradientUnits="userSpaceOnUse">
<stop stop-color="white"/>
<stop offset="1" stop-color="#DDDDDD"/>
</linearGradient>
</defs>
</svg>
