<svg width="362" height="56" viewBox="0 0 362 56" fill="none" xmlns="http://www.w3.org/2000/svg">
<path d="M27.5202 49.1462C32.2669 42.7526 34.6888 28.9967 34.6888 28.9967L36.9168 25.9936L35.7544 24.3468L38.7574 15.4345L37.2075 14.4658L39.2418 4.39101L36.3356 6.9097L35.6575 0.0317383L32.7513 6.71596L31.492 5.45661L29.8451 10.5909L28.6826 10.3003C28.6826 10.3003 24.5171 34.4216 21.1266 40.9121C19.5766 43.8182 17.3485 44.9807 15.2173 44.9807C12.6018 44.9807 10.2768 43.237 10.0831 41.1058C9.79245 37.2309 14.733 18.0501 14.733 18.0501L13.6674 16.5001L14.6361 10.494L12.0205 13.7877L12.8924 2.25981L9.50183 10.3003L8.62997 8.07218L7.08001 13.7877L5.62692 13.8845C5.62692 13.8845 3.01135 25.4124 0.492659 37.6184C-2.02603 50.115 5.53005 55.8305 13.6674 55.8305C18.8016 55.8305 24.2265 53.5055 27.5202 49.1462Z" fill="url(#paint0_linear)"/>
<path d="M32.3101 55.5398C32.3101 55.5398 68.2499 52.343 75.1279 46.4338C82.1027 40.5246 80.2621 33.2591 73.0935 29.8686C72.0279 29.3842 70.5748 28.8998 69.0249 28.5123C76.0966 19.8907 81.909 8.65342 76.7747 3.61603C73.9654 0.903594 70.7686 0.0317383 67.4749 0.0317383C64.1812 0.0317383 60.7907 0.903594 57.7876 1.96919C51.8784 3.90665 37.9287 10.2034 37.9287 10.2034L40.4474 10.5909L34.0538 14.1752L40.6411 12.9158L39.8662 14.3689L48.1003 12.044L44.8067 15.047C44.8067 15.047 46.6472 14.3689 49.2628 13.3033L45.9691 26.3811C41.2224 31.4185 34.9256 35.4872 34.9256 35.4872L36.8631 34.9059L36.185 35.8747L39.8662 33.9372L39.3818 35.5841C40.8349 35.0997 42.3848 34.7122 43.8379 34.4216L40.6411 47.1119C37.6381 47.3057 35.6038 47.3057 35.6038 47.3057L37.9287 49.5337L34.1507 51.7618L38.3162 51.9556L32.3101 55.5398ZM54.9783 25.7999L59.047 10.0096C61.1782 9.33152 63.4062 8.65342 65.2468 8.26592C66.4093 7.97531 67.378 7.87843 68.2499 7.87843C76.0966 7.87843 67.5718 19.4063 61.7594 26.478L59.8219 24.0562L58.1751 24.8312L57.9814 20.7625L54.9783 25.7999ZM49.6503 46.4338L52.944 33.6466C60.5969 33.5497 67.1843 35.0997 68.8311 36.2622C71.3498 38.1027 69.3155 42.0745 59.9188 44.5932C56.8189 45.4651 53.2346 46.0463 49.6503 46.4338Z" fill="url(#paint1_linear)"/>
<path d="M66.5977 52.0524L71.9258 52.2462L68.729 53.893L78.5131 53.2149L77.9319 55.5398L111.062 49.0494L104.088 48.7588L110.675 46.2401L107.575 45.6588L111.062 43.5276L102.441 44.3995L102.634 41.8808L86.941 44.5932L91.8815 29.3842L101.569 28.8998L99.7282 27.3499L104.088 25.703L96.9189 24.0562L97.0158 22.8937L94.0127 23.0875L97.7908 11.7533L109.319 8.65342L108.35 13.7877L110.287 12.2377L109.319 18.7282L113 13.4002L113.29 16.9845C113.29 16.9845 116.197 7.2972 117.262 2.6473C117.747 0.709845 115.906 0.0317383 112.709 0.0317383C102.731 0.0317383 79.8693 7.49094 77.6413 8.07218L77.9319 9.71901L72.507 12.2377L77.835 12.5283L76.285 14.4658L81.1287 13.9814L80.0631 16.3064L87.8129 14.272L84.6161 23.7656L80.5474 24.0562L82.0005 25.1218L80.8381 26.7686L81.7099 27.6405L78.61 30.1592L82.5818 29.9654L77.2538 46.2401L71.8289 47.2088L72.1195 49.0494L66.5977 52.0524Z" fill="url(#paint2_linear)"/>
<path d="M108.746 13.6908L113.009 13.5939L114.075 15.6283L117.465 14.9501V17.4688C117.465 17.4688 121.34 16.0157 126.184 14.272L124.44 15.822L116.206 40.8152L116.884 42.0745L115.431 48.2744L117.756 47.4025L116.496 55.6367L119.499 49.6306L121.534 49.1462L123.374 42.7526L125.99 41.3964L128.799 31.806C129.284 31.7091 129.865 31.4185 130.64 31.1279L143.33 45.2713L145.364 43.7214L149.627 48.9525L149.53 46.2401L159.798 55.6367L155.439 47.4994L157.667 46.5307L154.18 42.8495L154.664 41.3964L140.521 26.7686C147.689 22.9906 155.924 16.7907 155.73 8.07218C155.536 1.5817 150.402 0.12861 145.461 0.12861C142.458 0.12861 139.649 0.709845 138.002 1.00047C133.74 1.96919 116.303 7.2972 116.303 7.2972L117.174 9.33152L108.746 13.6908ZM132.771 17.9532L131.802 15.7251L134.127 11.3659C139.843 9.33152 144.977 7.68469 145.558 7.97531C146.818 8.45967 147.883 12.6252 142.458 16.2095C138.971 18.5344 134.515 20.6656 131.608 22.0219L132.771 17.9532Z" fill="url(#paint3_linear)"/>
<path d="M175.244 31.9998C175.534 32.7747 172.822 33.0654 172.822 33.0654C172.822 33.0654 178.15 33.0654 178.537 33.4528C178.828 33.8403 178.053 34.7122 178.053 34.7122H205.662C205.662 34.7122 203.918 33.4528 204.79 33.1622C205.662 32.8716 207.793 33.1622 207.793 33.1622L205.274 30.8373L215.64 28.8998C215.64 28.8998 208.762 28.2217 208.374 27.5436C208.083 26.7686 210.796 26.478 210.796 26.478C210.796 26.478 205.565 26.478 205.177 26.0905C204.79 25.703 205.662 24.8312 205.662 24.8312H177.956C177.956 24.8312 179.7 26.0905 178.828 26.3811C177.956 26.6718 175.922 26.3811 175.922 26.3811L178.44 28.7061L168.075 30.6435C168.075 30.6435 174.953 31.3216 175.244 31.9998Z" fill="url(#paint4_linear)"/>
<path d="M221.144 13.5939L222.21 15.7251L225.6 14.9501V17.4688C225.6 17.4688 228.797 16.3064 232.962 14.7564L224.341 40.7183L220.95 50.5025L223.178 50.5993L222.5 55.7336L227.538 48.2744L227.731 51.4712L231.316 46.9182L233.156 41.3964L234.997 38.7809L237.031 31.806C238.29 31.4185 240.518 30.5467 244.587 28.803C252.143 25.4124 264.155 18.5344 263.865 8.16905C263.671 1.67857 258.537 0.12861 253.596 0.12861C250.593 0.12861 247.784 0.709845 246.137 1.09734C241.875 1.96919 224.341 7.2972 224.341 7.2972L225.309 9.4284L216.882 13.6908L221.144 13.5939ZM241.875 18.6313L243.425 14.7564C243.425 14.7564 242.843 14.272 242.456 13.9814L243.328 11.0752C248.559 9.23465 253.112 7.78156 253.693 7.97531C254.953 8.55654 256.018 12.7221 250.496 16.3064C248.268 17.7595 245.459 19.3094 243.037 20.4719L244.006 18.5344L241.875 18.6313Z" fill="url(#paint5_linear)"/>
<path d="M259.891 55.7336H266.188C266.188 55.7336 268.9 55.0555 269.675 54.4742C282.365 46.1432 288.856 38.2965 291.084 14.0783L290.018 14.5627L289.921 8.26592L287.209 13.9814L285.271 12.9158L283.528 18.0501H281.493C281.493 18.0501 281.881 22.3125 280.912 26.3811C279.943 30.3529 275.972 32.7747 275.972 32.7747L275.681 35.9715C273.453 41.3964 267.931 45.2713 267.931 45.2713L268.028 43.7214C268.028 43.7214 267.059 44.3995 264.734 44.1089C262.506 43.8182 262.894 37.5215 263.669 34.5185C264.347 31.6123 266.478 29.5779 266.478 29.5779L266.091 24.7343L267.737 24.928L270.741 19.6969L272.29 13.0127L273.356 15.2408C273.356 15.2408 275.39 11.4627 278.49 11.4627C281.59 11.4627 281.59 15.9189 281.59 15.9189C283.818 14.6595 284.206 10.3003 284.206 10.3003L286.24 11.3659L288.275 8.65342C288.275 8.65342 284.4 0.225481 276.359 0.225481C268.319 0.225481 263.475 13.1096 261.538 15.047C259.503 17.0813 258.728 17.0813 256.791 24.4437C254.95 31.806 255.919 35.7778 255.919 35.7778L253.788 40.9121C254.175 47.9838 259.891 55.7336 259.891 55.7336Z" fill="url(#paint6_linear)"/>
<path d="M284.409 42.7526L285.281 45.4651L283.247 55.7336L285.766 51.9556L287.8 51.1806L290.125 46.9182L290.9 50.6962L298.359 28.028L308.143 48.1775L309.693 47.79V48.0806L310.468 51.7618L313.374 54.4742L314.149 51.9556L315.409 55.7336L330.036 11.1721L329.455 9.4284L330.908 4.1004L329.358 5.45661L329.455 0.225481L325.968 6.61908L325.096 3.80977L322.965 9.23465L321.027 11.269L312.987 35.4872L303.009 13.8845L300.684 7.68469L299.037 9.23465L296.906 4.97225L284.409 42.7526Z" fill="url(#paint7_linear)"/>
<path d="M331.194 55.5398C335.747 55.5398 342.916 52.1493 347.857 49.5337L347.953 50.9868L349.6 50.5025L349.794 55.5398L352.022 51.2774L352.797 53.893L354.25 48.8556L355.122 49.0494L356.188 35.9715L360.256 32.6779H356.575L362 28.4155L343.594 33.1622L345.241 34.131L337.782 37.5215L342.819 38.5871L339.913 41.2995L346.016 39.3621C343.691 41.0089 338.363 44.3026 333.81 44.012C328.385 43.7214 333.616 29.1904 338.072 20.7625V24.0562L344.66 11.7533C347.372 9.4284 349.794 8.84716 350.86 9.33152C352.506 10.0096 349.6 15.3376 349.6 15.3376L351.635 14.272L350.278 19.6969L352.603 17.6626L350.569 25.4124L355.025 20.4719L355.897 21.15C355.897 21.15 359.384 14.6595 360.256 9.91276C361.128 5.06912 358.609 0.0317383 351.441 0.0317383C345.725 0.0317383 337.879 3.7129 331.194 15.5314L329.451 13.5939L330.323 17.0813C328.966 19.6 327.707 22.5062 326.448 25.7999C319.085 45.8526 323.638 55.5398 331.194 55.5398Z" fill="url(#paint8_linear)"/>
<defs>
<linearGradient id="paint0_linear" x1="181" y1="0.0317383" x2="181" y2="55.8305" gradientUnits="userSpaceOnUse">
<stop stop-color="white"/>
<stop offset="1" stop-color="#DDDDDD"/>
</linearGradient>
<linearGradient id="paint1_linear" x1="181" y1="0.0317383" x2="181" y2="55.8305" gradientUnits="userSpaceOnUse">
<stop stop-color="white"/>
<stop offset="1" stop-color="#DDDDDD"/>
</linearGradient>
<linearGradient id="paint2_linear" x1="181" y1="0.0317383" x2="181" y2="55.8305" gradientUnits="userSpaceOnUse">
<stop stop-color="white"/>
<stop offset="1" stop-color="#DDDDDD"/>
</linearGradient>
<linearGradient id="paint3_linear" x1="181" y1="0.0317383" x2="181" y2="55.8305" gradientUnits="userSpaceOnUse">
<stop stop-color="white"/>
<stop offset="1" stop-color="#DDDDDD"/>
</linearGradient>
<linearGradient id="paint4_linear" x1="181" y1="0.0317383" x2="181" y2="55.8305" gradientUnits="userSpaceOnUse">
<stop stop-color="white"/>
<stop offset="1" stop-color="#DDDDDD"/>
</linearGradient>
<linearGradient id="paint5_linear" x1="181" y1="0.0317383" x2="181" y2="55.8305" gradientUnits="userSpaceOnUse">
<stop stop-color="white"/>
<stop offset="1" stop-color="#DDDDDD"/>
</linearGradient>
<linearGradient id="paint6_linear" x1="181" y1="0.0317383" x2="181" y2="55.8305" gradientUnits="userSpaceOnUse">
<stop stop-color="white"/>
<stop offset="1" stop-color="#DDDDDD"/>
</linearGradient>
<linearGradient id="paint7_linear" x1="181" y1="0.0317383" x2="181" y2="55.8305" gradientUnits="userSpaceOnUse">
<stop stop-color="white"/>
<stop offset="1" stop-color="#DDDDDD"/>
</linearGradient>
<linearGradient id="paint8_linear" x1="181" y1="0.0317383" x2="181" y2="55.8305" gradientUnits="userSpaceOnUse">
<stop stop-color="white"/>
<stop offset="1" stop-color="#DDDDDD"/>
</linearGradient>
</defs>
</svg>
